<svg width="391" height="540" viewBox="0 0 391 540" fill="none" xmlns="http://www.w3.org/2000/svg">
<g filter="url(#filter0_ddi_1_45)">
<path d="M110.348 293.775L197.946 112.124C198.919 110.108 201.964 110.968 201.737 113.195L193.223 197.059C193.071 198.562 194.576 199.685 195.974 199.111L278.167 165.32C279.85 164.629 281.507 166.36 280.743 168.01L160.259 428.275C159.3 430.346 156.178 429.453 156.459 427.189L176.162 268.187C176.259 267.404 175.454 266.823 174.741 267.161L113.007 296.451C111.302 297.259 109.528 295.475 110.348 293.775Z" fill="#FEE62C"/>
</g>
<g filter="url(#filter1_f_1_45)">
<path d="M110.348 293.775L197.946 112.124C198.919 110.108 201.964 110.968 201.737 113.195L193.223 197.059C193.071 198.562 194.576 199.685 195.974 199.111L278.167 165.32C279.85 164.629 281.507 166.36 280.743 168.01L160.259 428.275C159.3 430.346 156.178 429.453 156.459 427.189L176.162 268.187C176.259 267.404 175.454 266.823 174.741 267.161L113.007 296.451C111.302 297.259 109.528 295.475 110.348 293.775Z" fill="#FEE62C"/>
</g>
<g filter="url(#filter2_f_1_45)">
<path d="M110.348 293.775L197.946 112.124C198.919 110.108 201.964 110.968 201.737 113.195L193.223 197.059C193.071 198.562 194.576 199.685 195.974 199.111L278.167 165.32C279.85 164.629 281.507 166.36 280.743 168.01L160.259 428.275C159.3 430.346 156.178 429.453 156.459 427.189L176.162 268.187C176.259 267.404 175.454 266.823 174.741 267.161L113.007 296.451C111.302 297.259 109.528 295.475 110.348 293.775Z" fill="#FEE62C" style="mix-blend-mode:plus-lighter"/>
</g>
<g filter="url(#filter3_f_1_45)">
<path d="M110.348 293.775L197.946 112.124C198.919 110.108 201.964 110.968 201.737 113.195L193.223 197.059C193.071 198.562 194.576 199.685 195.974 199.111L278.167 165.32C279.85 164.629 281.507 166.36 280.743 168.01L160.259 428.275C159.3 430.346 156.178 429.453 156.459 427.189L176.162 268.187C176.259 267.404 175.454 266.823 174.741 267.161L113.007 296.451C111.302 297.259 109.528 295.475 110.348 293.775Z" stroke="white"/>
</g>
<g opacity="0.6" filter="url(#filter4_f_1_45)">
<path d="M110.348 293.775L197.946 112.124C198.919 110.108 201.964 110.968 201.737 113.195L193.223 197.059C193.071 198.562 194.576 199.685 195.974 199.111L278.167 165.32C279.85 164.629 281.507 166.36 280.743 168.01L160.259 428.275C159.3 430.346 156.178 429.453 156.459 427.189L176.162 268.187C176.259 267.404 175.454 266.823 174.741 267.161L113.007 296.451C111.302 297.259 109.528 295.475 110.348 293.775Z" fill="white" style="mix-blend-mode:plus-lighter"/>
</g>
<defs>
<filter id="filter0_ddi_1_45" x="50.1417" y="50.9879" width="290.793" height="438.452" filterUnits="userSpaceOnUse" color-interpolation-filters="sRGB">
<feFlood flood-opacity="0" result="BackgroundImageFix"/>
<feColorMatrix in="SourceAlpha" type="matrix" values="0 0 0 0 0 0 0 0 0 0 0 0 0 0 0 0 0 0 127 0" result="hardAlpha"/>
<feOffset/>
<feGaussianBlur stdDeviation="7.5"/>
<feComposite in2="hardAlpha" operator="out"/>
<feColorMatrix type="matrix" values="0 0 0 0 0.941176 0 0 0 0 0.823529 0 0 0 0 0.184314 0 0 0 0.3 0"/>
<feBlend mode="normal" in2="BackgroundImageFix" result="effect1_dropShadow_1_45"/>
<feColorMatrix in="SourceAlpha" type="matrix" values="0 0 0 0 0 0 0 0 0 0 0 0 0 0 0 0 0 0 127 0" result="hardAlpha"/>
<feOffset/>
<feGaussianBlur stdDeviation="30"/>
<feComposite in2="hardAlpha" operator="out"/>
<feColorMatrix type="matrix" values="0 0 0 0 1 0 0 0 0 0.666667 0 0 0 0 0 0 0 0 0.2 0"/>
<feBlend mode="normal" in2="effect1_dropShadow_1_45" result="effect2_dropShadow_1_45"/>
<feBlend mode="normal" in="SourceGraphic" in2="effect2_dropShadow_1_45" result="shape"/>
<feColorMatrix in="SourceAlpha" type="matrix" values="0 0 0 0 0 0 0 0 0 0 0 0 0 0 0 0 0 0 127 0" result="hardAlpha"/>
<feOffset dy="4"/>
<feGaussianBlur stdDeviation="9"/>
<feComposite in2="hardAlpha" operator="arithmetic" k2="-1" k3="1"/>
<feColorMatrix type="matrix" values="0 0 0 0 1 0 0 0 0 0.992157 0 0 0 0 0.898039 0 0 0 1 0"/>
<feBlend mode="normal" in2="shape" result="effect3_innerShadow_1_45"/>
</filter>
<filter id="filter1_f_1_45" x="0.141724" y="0.987915" width="390.793" height="538.452" filterUnits="userSpaceOnUse" color-interpolation-filters="sRGB">
<feFlood flood-opacity="0" result="BackgroundImageFix"/>
<feBlend mode="normal" in="SourceGraphic" in2="BackgroundImageFix" result="shape"/>
<feGaussianBlur stdDeviation="55" result="effect1_foregroundBlur_1_45"/>
</filter>
<filter id="filter2_f_1_45" x="60.1417" y="60.9879" width="270.793" height="418.452" filterUnits="userSpaceOnUse" color-interpolation-filters="sRGB">
<feFlood flood-opacity="0" result="BackgroundImageFix"/>
<feBlend mode="normal" in="SourceGraphic" in2="BackgroundImageFix" result="shape"/>
<feGaussianBlur stdDeviation="25" result="effect1_foregroundBlur_1_45"/>
</filter>
<filter id="filter3_f_1_45" x="99.6398" y="100.487" width="191.796" height="339.454" filterUnits="userSpaceOnUse" color-interpolation-filters="sRGB">
<feFlood flood-opacity="0" result="BackgroundImageFix"/>
<feBlend mode="normal" in="SourceGraphic" in2="BackgroundImageFix" result="shape"/>
<feGaussianBlur stdDeviation="5" result="effect1_foregroundBlur_1_45"/>
</filter>
<filter id="filter4_f_1_45" x="90.1417" y="90.9879" width="210.793" height="358.452" filterUnits="userSpaceOnUse" color-interpolation-filters="sRGB">
<feFlood flood-opacity="0" result="BackgroundImageFix"/>
<feBlend mode="normal" in="SourceGraphic" in2="BackgroundImageFix" result="shape"/>
<feGaussianBlur stdDeviation="10" result="effect1_foregroundBlur_1_45"/>
</filter>
</defs>
</svg>
